C:/Program Files/Krita (x64)/bin/ffmpeg.exe -hide_banner -y -y -r 4 -start_number 0 -start_number_range 1 -i C:/Users/Alumne-tarda/Pictures/RUN ANIME%04d.png -f apng -pred none -plays 0 F:/SHADORN/shadorn/assets/entities/shadorn.apng
=====================================================
Input #0, image2, from 'C:/Users/Alumne-tarda/Pictures/RUN ANIME%04d.png':
  Duration: 00:00:04.04, start: 0.000000, bitrate: N/A
  Stream #0:0: Video: png, rgba(pc), 145x176 [SAR 39330:39330 DAR 145:176], 25 fps, 25 tbr, 25 tbn, 25 tbc
Stream mapping:
  Stream #0:0 -> #0:0 (png (native) -> apng (native))
Press [q] to stop, [?] for help
Output #0, apng, to 'F:/SHADORN/shadorn/assets/entities/shadorn.apng':
  Metadata:
    encoder         : Lavf58.76.100
  Stream #0:0: Video: apng, rgba(pc, progressive), 145x176 [SAR 39330:39330 DAR 145:176], q=2-31, 200 kb/s, 4 fps, 4 tbn
    Metadata:
      encoder         : Lavc58.134.100 apng
frame=    1 fps=0.0 q=0.0 size=       0kB time=00:00:00.00 bitrate=N/A speed=   0x    frame=  101 fps=0.0 q=-0.0 Lsize=      41kB time=00:00:25.25 bitrate=  13.4kbits/s speed= 233x    
video:41kB audio:0kB subtitle:0kB other streams:0kB global headers:0kB muxing overhead: 0.203103%
